<svg width="137" height="28" viewBox="0 0 137 28" fill="none" xmlns="http://www.w3.org/2000/svg">
<g clip-path="url(#clip0_99_330)">
<path fill-rule="evenodd" clip-rule="evenodd" d="M125.999 6V4H121.999V6V11.9995H116H114V15.9995H116H121.999V21.9989V23.9989H125.999V21.9989V15.9995H131.998H133.998V11.9995H131.998H125.999V6Z" fill="#002702"/>
<path d="M1.64062 27V1.54545H8.55114V11.4886H17.6989V1.54545H24.6094V27H17.6989V17.0568H8.55114V27H1.64062ZM52.5497 14.2727C52.5497 17.1065 51.9987 19.497 50.8967 21.4442C49.7946 23.3832 48.3073 24.8539 46.4347 25.8565C44.562 26.8509 42.474 27.348 40.1705 27.348C37.8504 27.348 35.754 26.8467 33.8814 25.8441C32.017 24.8332 30.5339 23.3583 29.4318 21.4194C28.3381 19.4722 27.7912 17.09 27.7912 14.2727C27.7912 11.4389 28.3381 9.05256 29.4318 7.11364C30.5339 5.16643 32.017 3.69567 33.8814 2.70135C35.754 1.69874 37.8504 1.19744 40.1705 1.19744C42.474 1.19744 44.562 1.69874 46.4347 2.70135C48.3073 3.69567 49.7946 5.16643 50.8967 7.11364C51.9987 9.05256 52.5497 11.4389 52.5497 14.2727ZM45.4403 14.2727C45.4403 12.7481 45.2373 11.4638 44.8313 10.4197C44.4336 9.36742 43.8411 8.57197 43.054 8.03338C42.2751 7.4865 41.3139 7.21307 40.1705 7.21307C39.027 7.21307 38.0617 7.4865 37.2745 8.03338C36.4956 8.57197 35.9032 9.36742 35.4972 10.4197C35.0994 11.4638 34.9006 12.7481 34.9006 14.2727C34.9006 15.7973 35.0994 17.0858 35.4972 18.1381C35.9032 19.1822 36.4956 19.9776 37.2745 20.5245C38.0617 21.0631 39.027 21.3324 40.1705 21.3324C41.3139 21.3324 42.2751 21.0631 43.054 20.5245C43.8411 19.9776 44.4336 19.1822 44.8313 18.1381C45.2373 17.0858 45.4403 15.7973 45.4403 14.2727ZM55.7471 27V1.54545H66.7343C68.6235 1.54545 70.2765 1.88932 71.6934 2.57706C73.1104 3.2648 74.2124 4.25497 74.9996 5.54759C75.7867 6.8402 76.1803 8.38968 76.1803 10.196C76.1803 12.0189 75.7743 13.556 74.9623 14.8072C74.1585 16.0584 73.0275 17.003 71.5692 17.641C70.1191 18.279 68.4246 18.598 66.4857 18.598H59.9232V13.2287H65.0937C65.9057 13.2287 66.5976 13.1293 67.1693 12.9304C67.7493 12.7232 68.1926 12.396 68.4992 11.9485C68.8141 11.5011 68.9715 10.9169 68.9715 10.196C68.9715 9.46686 68.8141 8.87441 68.4992 8.41868C68.1926 7.95466 67.7493 7.61494 67.1693 7.3995C66.5976 7.17578 65.9057 7.06392 65.0937 7.06392H62.6576V27H55.7471ZM70.6618 15.3168L77.0255 27H69.5184L63.3039 15.3168H70.6618ZM78.43 7.11364V1.54545H100.554V7.11364H92.8973V27H86.0862V7.11364H78.43ZM110.065 1.54545V27H103.154V1.54545H110.065Z" fill="white"/>
</g>
<defs>
<clipPath id="clip0_99_330">
<rect width="137" height="28" fill="white"/>
</clipPath>
</defs>
</svg>
