<svg width="22" height="22" viewBox="0 0 22 22" fill="none" xmlns="http://www.w3.org/2000/svg">
<path d="M3.13937 2.3606C3.08824 2.30947 3.02753 2.2689 2.96072 2.24123C2.8939 2.21355 2.82229 2.19931 2.74997 2.19931C2.67766 2.19931 2.60605 2.21355 2.53923 2.24123C2.47242 2.2689 2.41171 2.30947 2.36057 2.3606C2.30944 2.41174 2.26887 2.47245 2.2412 2.53926C2.21352 2.60608 2.19928 2.67769 2.19928 2.75001C2.19928 2.82232 2.21352 2.89393 2.2412 2.96075C2.26887 3.02756 2.30944 3.08827 2.36057 3.13941L6.21057 6.98721C4.30405 8.28802 2.97669 10.2779 2.50797 12.5378C2.49324 12.6085 2.49258 12.6814 2.50602 12.7524C2.51947 12.8234 2.54676 12.891 2.58635 12.9514C2.62593 13.0118 2.67702 13.0639 2.73671 13.1045C2.7964 13.1452 2.86351 13.1737 2.93422 13.1885C3.00493 13.2032 3.07785 13.2039 3.14882 13.1904C3.21979 13.177 3.28741 13.1497 3.34783 13.1101C3.40825 13.0705 3.46028 13.0194 3.50095 12.9597C3.54162 12.9 3.57014 12.8329 3.58487 12.7622C3.79543 11.7466 4.20619 10.783 4.79318 9.92785C5.38017 9.07268 6.13162 8.343 7.00367 7.78141L8.74497 9.52161C8.29114 9.84713 7.91357 10.2675 7.63845 10.7535C7.36333 11.2396 7.19725 11.7796 7.15174 12.3363C7.10622 12.8929 7.18236 13.4528 7.37487 13.9771C7.56738 14.5014 7.87165 14.9775 8.26657 15.3724C8.66149 15.7673 9.13761 16.0716 9.66188 16.2641C10.1862 16.4566 10.746 16.5328 11.3027 16.4872C11.8593 16.4417 12.3994 16.2756 12.8855 16.0005C13.3715 15.7254 13.7919 15.3478 14.1174 14.894L18.8617 19.6394C18.9649 19.7427 19.105 19.8007 19.2511 19.8007C19.3971 19.8007 19.5372 19.7427 19.6405 19.6394C19.7437 19.5361 19.8018 19.3961 19.8018 19.25C19.8018 19.104 19.7437 18.9639 19.6405 18.8606L3.13937 2.3606ZM11.1364 8.80331L14.8357 12.5026C14.7984 11.5334 14.3967 10.6139 13.7109 9.9281C13.025 9.24226 12.1056 8.84056 11.1364 8.80331ZM8.28298 5.951L9.16627 6.83431C9.76503 6.67839 10.3813 6.59965 11 6.6C14.5266 6.6 17.6627 9.15971 18.414 12.7622C18.4437 12.9052 18.5291 13.0304 18.6512 13.1105C18.7733 13.1905 18.9222 13.2188 19.0652 13.189C19.2081 13.1592 19.3334 13.0739 19.4134 12.9518C19.4935 12.8297 19.5217 12.6808 19.492 12.5378C18.6373 8.4403 15.0623 5.50001 11 5.50001C10.0595 5.50001 9.14318 5.6573 8.28298 5.951Z" fill="black"/>
</svg>
