<svg width="28" height="28" viewBox="0 0 28 28" fill="none" xmlns="http://www.w3.org/2000/svg">
<path d="M6.33495 3.76251H7.99745L12.0924 3.78001H16.6774L18.6199 3.76251H22.3299L22.7849 3.79751L23.0824 3.86751L23.3274 3.99001L23.5899 4.16501L23.8174 4.39251L23.9399 4.56751L24.0799 4.81251L24.1674 5.05751L24.2024 5.21501L24.2374 5.70501L24.2549 8.96001L24.2724 9.27501L24.3249 9.45001L24.4474 9.62501L24.6049 9.80001L24.7624 9.99251L25.0074 10.3075L25.2174 10.605L25.5849 11.095L25.7249 11.27L25.9349 11.55L26.1099 11.7775L26.3549 12.11L26.5824 12.425L26.7574 12.67L26.9499 12.9675L27.0374 13.195V13.37L26.9324 13.685L26.7049 14.0525L26.5299 14.2975L26.4074 14.49L26.3374 14.5775L26.2499 14.5425L25.6374 14.175L25.2524 13.9825L24.7799 13.7725L24.2899 13.5625L23.9049 13.4225L23.5549 13.335L23.4324 13.2825L23.3449 13.1425L23.0649 12.565L22.8899 12.2325L22.6974 11.83L21.6999 9.83501L21.5599 9.57251L21.4549 9.36251L21.3849 9.32751H20.3349L18.9699 9.34501H18.6199L18.7424 9.67751L18.9874 10.64L19.2324 11.585L19.3724 12.1975L19.5124 12.7575L19.5824 13.125V13.2475L19.3899 13.3175L18.8474 13.475L18.1124 13.755L17.5524 14.0175L17.2724 14.1575L16.9574 14.3325L16.7124 14.525L16.6249 14.595L16.5549 14.56L16.4324 14.42L16.2574 14.14L16.0999 13.9475L15.9599 13.79L15.9074 13.6325L15.8724 13.3L15.8549 12.9325L15.8374 11.725V9.32751L12.1449 9.34501V9.81751L12.1274 12.46L12.0924 13.3175L12.0399 13.65L11.9699 13.825L11.7424 14.14L11.6024 14.315L11.4449 14.4725L11.1824 14.665L11.0074 14.77L10.7274 14.8575L10.4124 14.91H10.0799L9.76495 14.8575L9.41495 14.7175L9.20495 14.595L9.02995 14.455L8.88995 14.3325L8.74995 14.1575L8.60995 13.93L8.46995 13.6325L8.41745 13.44L8.39995 13.23L8.43495 12.8975L8.55745 12.32L8.88995 10.99L9.11745 10.15L9.30995 9.45001L9.32745 9.36251L9.29245 9.34501H6.54495L6.14245 10.15L5.94995 10.5525L5.72245 10.99L5.44245 11.4625L5.28495 11.725L5.14495 11.9875L4.95245 12.39L4.79495 12.74L4.67245 13.09L4.56745 13.5625L4.46245 13.825L4.30495 14.1225L4.12995 14.3675L4.00745 14.5075L3.76245 14.6475L3.46495 14.7875L3.16745 14.875L2.97495 14.91H2.57245L2.29245 14.8575L2.02995 14.7525L1.81995 14.6475L1.57495 14.455L1.36495 14.245L1.15495 13.93L1.01495 13.615L0.944946 13.37V13.195L1.03245 12.95L1.18995 12.6875L1.32995 12.495L1.53995 12.215L1.73245 11.9525L1.88995 11.7425L2.13495 11.4275L2.34495 11.165L2.60745 10.815L2.74745 10.6225L2.95745 10.325L3.18495 10.0275L3.39495 9.78251L3.56995 9.55501L3.63995 9.43251L3.69245 9.27501L3.70995 9.13501L3.72745 5.65251L3.76245 5.25001L3.83245 4.97001L3.91995 4.74251L4.07745 4.49751L4.26995 4.28751L4.40995 4.14751L4.67245 3.97251L4.89995 3.86751L5.07495 3.81501L5.40745 3.78001L6.33495 3.76251ZM10.0974 5.58251L9.86995 5.65251L9.71245 5.77501L9.50245 5.98501L9.39745 6.19501L9.34495 6.35251L9.32745 6.52751L9.36245 6.73751L9.44995 6.94751L9.55495 7.12251L9.67745 7.26251L9.88745 7.38501L10.1324 7.43751H10.3599L10.5874 7.36751L10.7974 7.24501L10.9374 7.12251L11.0949 6.87751L11.1474 6.73751L11.1649 6.66751V6.40501L11.0949 6.17751L10.9899 6.00251L10.8324 5.82751L10.7099 5.72251L10.4999 5.61751L10.3249 5.58251H10.0974ZM6.33495 5.60001L6.12495 5.68751L5.91495 5.84501L5.79245 5.98501L5.65245 6.21251L5.61745 6.31751V6.61501L5.68745 6.84251L5.86245 7.12251L6.01995 7.28001L6.26495 7.40251L6.43995 7.43751H6.64995L6.85995 7.36751L7.10495 7.21001L7.20995 7.12251L7.31495 6.94751L7.38495 6.77251L7.41995 6.59751V6.44001L7.34995 6.16001L7.20995 5.93251L7.08745 5.79251L6.89495 5.67001L6.66745 5.60001H6.33495Z" fill="#424242"/>
<path d="M20.895 14.9625L21.875 14.98L21.945 15.05L21.98 15.19L21.9975 15.4525L22.0325 15.575L22.12 15.6625L22.2775 15.7675L22.505 15.8725L22.8725 16.0125L23.1525 16.0825L23.4325 16.135H23.5725L23.7475 16.0475L23.9925 15.8375L24.1675 15.645L24.22 15.575L24.3075 15.5925L24.5875 15.7325L24.9025 15.925L25.095 16.0825L25.13 16.1525L25.1125 16.275L24.92 16.625L24.8675 16.765L24.885 16.8875L24.99 17.0275L25.515 17.5525L25.655 17.7275L25.83 17.9025L26.04 18.025L26.1625 18.0075L26.5475 17.8325L26.6 17.815H26.7575L26.88 17.885L26.985 18.06L27.1425 18.2875L27.3 18.55L27.2825 18.6725L27.1775 18.8125L26.8975 19.0225L26.7925 19.1625L26.7225 19.355V19.5475L26.775 19.81L26.8975 20.2475L27.0375 20.6325L27.125 20.72L27.3 20.8075L28 20.9825V21.875L27.58 22.015L27.3 22.1025L27.16 22.19L27.055 22.365L26.915 22.645L26.81 22.925L26.74 23.205V23.5375L26.775 23.695L26.8975 23.87L27.16 24.0975L27.3175 24.2725V24.36L27.2125 24.535L27.1425 24.6225L27.0375 24.8325L26.915 25.0075L26.8275 25.0775L26.7575 25.1125L26.635 25.095L26.3025 24.9725L26.04 24.92L25.9 24.99L25.76 25.13L25.5325 25.305L25.4625 25.375H25.4275V25.41L25.2875 25.5325L25.13 25.725L25.0075 25.8825L24.92 26.075L24.955 26.25L25.06 26.5475L25.095 26.705L25.0775 26.8275L24.99 26.9325L24.7625 27.0725L24.5875 27.1775L24.4475 27.2825L24.36 27.3175L24.255 27.3L24.08 27.1425L23.94 27.02L23.8175 26.8625L23.695 26.7575L23.555 26.7225L23.345 26.74L23.1 26.7925L22.9425 26.81L22.6275 26.9325L22.3475 27.0725L22.2075 27.1775L22.1025 27.3525L21.9625 27.86L21.9275 28H20.9825L20.9475 27.8775L20.825 27.405L20.755 27.2475L20.6325 27.1075L20.4925 27.02L20.1425 26.88L19.8625 26.7925L19.5825 26.74H19.3375L19.1625 26.81L19.0225 26.915L18.9 27.0725L18.7425 27.2475L18.6725 27.2825H18.515L18.305 27.1775L18.0425 27.02L17.8325 26.8275L17.7975 26.7575V26.635L17.8675 26.4775L17.9725 26.2325L18.0075 26.075L17.9375 25.9175L17.7975 25.7425L17.675 25.62L17.535 25.4975L17.2375 25.2L17.185 25.165V25.13L17.115 25.095L17.01 24.9725L16.87 24.8675H16.7475L16.3975 25.06L16.1875 25.1125L16.065 25.095L15.9425 24.9725L15.785 24.71L15.6625 24.5175L15.61 24.36L15.5925 24.1675L15.6625 24.08L15.82 23.9575L15.9075 23.8875L16.0475 23.695L16.1 23.5725L16.1175 23.4325L16.065 23.1175L15.9425 22.7675L15.8375 22.47L15.715 22.225L15.645 22.1375L15.5225 22.0675L15.26 21.9975L15.05 21.9275L14.98 21.8575L14.9625 21.7875V21.35L14.98 21.0875L15.0325 20.965L15.1725 20.9125L15.575 20.8075L15.715 20.685L15.8025 20.5625L15.9075 20.335L16.0125 19.95L16.1 19.6875L16.135 19.53V19.32L16.0475 19.145L15.96 19.04L15.8025 18.935L15.6275 18.7775L15.5575 18.6375V18.5325L15.645 18.3925L15.82 18.1475L15.89 17.99L16.0125 17.7975L16.03 17.78H16.17L16.4325 17.8675L16.6775 17.99L16.7825 18.025L16.8875 18.0075L17.08 17.8675L17.255 17.7275L17.43 17.57L17.6575 17.325L17.7975 17.15L17.955 16.94L18.025 16.8175L18.0075 16.695L17.8325 16.415L17.7625 16.275L17.745 16.17L17.815 16.03L17.99 15.925L18.235 15.7675L18.4275 15.61L18.55 15.5575L18.6725 15.575L18.8125 15.6975L18.97 15.925L19.11 16.0825L19.3725 16.17L19.5125 16.1525L19.7575 16.1175L20.1775 15.9775L20.51 15.82L20.755 15.6975L20.86 15.5225L20.8775 15.4175V14.9975L20.895 14.9625ZM21.035 17.78L20.58 17.85L20.1775 17.955L19.8275 18.095L19.495 18.27L19.285 18.41L19.075 18.5675L18.865 18.76L18.69 18.9175L18.4975 19.1625L18.3225 19.425L18.1475 19.74L18.0075 20.09L17.9025 20.4225L17.815 20.8425L17.7625 21.2625V21.665L17.815 22.1025L17.9025 22.505L18.0425 22.9075L18.2175 23.2925L18.3925 23.59L18.55 23.8175L18.7075 24.01L18.7775 24.0975L18.9175 24.22L19.145 24.3775L19.4075 24.535L19.6175 24.64L19.8275 24.7625L20.2125 24.92L20.545 25.0425L20.93 25.13L21.245 25.1825H21.6475L22.155 25.095L22.61 24.955L23.0475 24.78L23.3275 24.64L23.695 24.4125L23.905 24.255L24.115 24.0625L24.2375 23.94L24.465 23.625L24.64 23.345L24.7975 23.0125L24.9025 22.8025L25.06 22.3125L25.1475 21.8925L25.165 21.7V21.2975L25.1125 20.895L25.025 20.5275L24.8675 20.055L24.71 19.705L24.605 19.5125L24.4125 19.215L24.255 19.005L24.0625 18.795L23.8875 18.62L23.59 18.3925L23.275 18.2175L22.995 18.0775L22.82 18.0075L22.4 17.885L22.015 17.815L21.7175 17.78H21.035Z" fill="#424242"/>
<path d="M3.74496 16.8H4.81246L5.58246 16.8175L5.59996 16.835V17.78L5.58246 21.3325L5.56496 22.4H12.7925L13.0725 22.4175L13.1075 22.4525L13.1775 22.8375L13.265 23.3275L13.335 23.6425L13.51 24.08V24.2025L13.44 24.22L13.0725 24.2375H5.91496L5.45996 24.22L5.10996 24.185L4.81246 24.0975L4.44496 23.8875L4.23496 23.695L4.09496 23.52L3.95496 23.2925L3.88496 23.1525L3.81496 22.925L3.76246 22.61L3.72746 21.9975L3.70996 20.405V17.6575L3.72746 16.8175L3.74496 16.8Z" fill="#424242"/>
<path d="M21.21 20.5625H21.5425L21.805 20.6325L21.9625 20.72L22.2075 20.93L22.33 21.0875L22.3825 21.245V21.595L22.295 21.805L22.155 21.98L21.98 22.1725L21.805 22.295L21.63 22.365L21.4725 22.3825L21.2625 22.365L21.035 22.2775L20.8425 22.1375L20.65 21.91L20.545 21.6825L20.51 21.5075L20.5275 21.28L20.615 21.0525L20.685 20.9475L20.8425 20.7725L20.965 20.6675L21.1575 20.58L21.21 20.5625Z" fill="#424242"/>
</svg>
