<svg width="28" height="28" viewBox="0 0 28 28" fill="none" xmlns="http://www.w3.org/2000/svg">
<path d="M19.425 4.655H23.6075L24.395 4.6725L24.745 4.7075L24.9375 4.76L25.1475 4.865L25.3225 4.9875L25.4975 5.1275V5.1625H25.5325L25.655 5.3025L25.8475 5.565L26.005 5.8625L26.075 6.09L26.11 6.37L26.1275 6.79V10.36L26.11 11.2525L26.04 11.3575L25.935 11.4275L25.69 11.55L25.3575 11.7775L25.1825 11.935L24.9725 12.145L24.78 12.39L24.605 12.67L24.4475 13.02L24.3425 13.3525L24.2725 13.7375L24.255 13.9125V14.1575L24.3075 14.525L24.395 14.84L24.5175 15.155L24.6925 15.4525L24.85 15.6625L25.06 15.9075L25.27 16.1175L25.515 16.31L25.655 16.3975L25.97 16.5375L26.11 16.6425L26.1275 16.7125V20.8775L26.0925 21.63L26.0575 21.8925L25.9875 22.155L25.8825 22.3475L25.69 22.6275L25.5325 22.8025L25.3225 22.9775L25.025 23.17L24.745 23.24L24.465 23.275L24.2025 23.2925L23.52 23.31H4.02502L3.55252 23.2925L3.25502 23.2575L3.01002 23.1875L2.71252 23.03L2.43252 22.8025L2.25752 22.61L2.04752 22.2775L1.94252 22.0675L1.87252 21.77L1.85502 21.6475L1.83752 21.3325V18.55L1.85502 16.6075L1.90752 16.555L2.20502 16.45L2.41502 16.345L2.60752 16.205L2.78252 16.0475L2.87002 15.96L3.08002 15.7325L3.27252 15.47L3.41252 15.2425L3.58752 14.805L3.67502 14.4025L3.71002 14.1575V13.755L3.65752 13.44L3.57002 13.1075L3.44752 12.81L3.30752 12.5475L3.13252 12.3025L2.92252 12.0575L2.80002 11.9175L2.62502 11.76L2.36252 11.585L2.06502 11.4625L1.89002 11.41L1.83752 11.3225V7.665L1.85502 6.44L1.89002 6.1425L1.96002 5.8625L2.11752 5.565L2.27502 5.355L2.43252 5.18L2.59002 5.04L2.81752 4.8825L3.04502 4.7425L3.22002 4.69L3.36002 4.6725L19.425 4.655ZM10.5525 8.785L10.185 8.8375L9.83502 8.9425L9.55502 9.0825L9.31002 9.2575L9.08252 9.45V9.485H9.04752L8.89002 9.6775L8.71502 9.9575L8.57502 10.29L8.48752 10.57L8.41752 10.9025L8.38252 11.235V11.5325L8.43502 11.9L8.50502 12.1975L8.62752 12.53L8.75002 12.775L8.89002 12.985L9.03002 13.16L9.13502 13.2825L9.32752 13.44L9.55502 13.5975L9.80002 13.72L10.1675 13.8425L10.395 13.895L10.535 13.9125H11.095L11.4275 13.86L11.7075 13.7725L12.04 13.6325L12.2325 13.51L12.4775 13.3175L12.6525 13.125L12.8975 12.7575L13.0375 12.4775L13.1425 12.1975L13.2125 11.8825L13.2475 11.6375V11.0425L13.16 10.57L13.055 10.255L12.845 9.8525L12.67 9.6075L12.5125 9.4325L12.425 9.345L12.2675 9.205L12.005 9.0475L11.655 8.9075L11.3925 8.8375L11.025 8.785H10.5525ZM16.1175 9.0475L16.03 9.0825L15.8375 9.45L15.6625 9.73L15.435 10.15L15.3475 10.29L15.2425 10.5L15.05 10.8325L14.56 11.6725L14.2975 12.145L14.1225 12.4425L13.965 12.705L13.825 12.95L13.6325 13.265L13.3875 13.65L13.195 13.965L12.985 14.2625L12.845 14.455L12.6875 14.6825L12.5125 14.945L12.32 15.2075L12.11 15.4875L11.9175 15.75L11.7425 16.0125L11.6025 16.205L11.1475 16.835L10.9375 17.1325L10.71 17.4475L10.5 17.745L10.36 17.9375L10.185 18.1825L10.01 18.41L9.80002 18.69L9.66002 18.8825V18.9175L10.675 18.935H11.7425L11.935 18.9L12.0225 18.8125L12.215 18.515L12.3725 18.235L12.7925 17.465L13.055 16.9925L13.195 16.765L13.405 16.415L13.65 15.96L13.7375 15.8025L13.8775 15.575L13.9825 15.3825L14.105 15.1725L14.21 14.98L14.4025 14.63L14.595 14.315L14.8225 13.965L15.05 13.6325L15.26 13.3525L15.4 13.1425L15.54 12.95L15.8025 12.6L15.9775 12.3725L16.17 12.11L16.38 11.8125L16.555 11.585L17.045 10.92L17.255 10.6225L17.3775 10.4475L17.5875 10.15L17.8325 9.8L18.0075 9.5725L18.1475 9.38L18.34 9.1175V9.065L18.27 9.0475H16.1175ZM17.01 14.0525L16.5725 14.105L16.205 14.21L15.8725 14.3675L15.575 14.5775L15.3475 14.805L15.2425 14.945L15.05 15.26L14.91 15.5575L14.8225 15.8725L14.77 16.1175L14.735 16.4325V16.7475L14.7875 17.185L14.875 17.535L14.9975 17.8325L15.1725 18.165L15.33 18.375L15.54 18.62L15.7675 18.795L16.0475 18.9525L16.31 19.0575L16.7125 19.1625L17.0975 19.1975H17.2725L17.605 19.1625L17.9375 19.075L18.2875 18.935L18.48 18.83L18.7075 18.6725L18.8825 18.515L19.005 18.3925L19.1975 18.1125L19.3375 17.8325L19.4425 17.57L19.5475 17.15L19.5825 16.835V16.345L19.5475 16.03L19.4425 15.6625L19.3025 15.3475L19.1625 15.085L18.9875 14.84L18.725 14.5775L18.41 14.3675L18.1125 14.2275L17.85 14.14L17.605 14.0875L17.255 14.0525H17.01Z" fill="#444444"/>
<path d="M10.6575 10.2725H10.8675L11.06 10.3425L11.235 10.5L11.34 10.6575L11.4275 10.885L11.4625 11.095V11.4975L11.4275 11.7425L11.3575 11.97L11.235 12.1625L11.165 12.25L10.9725 12.4075L10.8675 12.4425H10.745L10.57 12.3725L10.43 12.2675L10.325 12.145L10.22 11.9L10.1675 11.655L10.15 11.4975V11.095L10.2025 10.8325L10.3075 10.57L10.43 10.395L10.5525 10.3075L10.6575 10.2725Z" fill="#464646"/>
<path d="M17.0275 15.5575H17.2725L17.4475 15.61L17.605 15.75L17.6925 15.89L17.7975 16.275L17.815 16.4675V16.73L17.78 17.01L17.71 17.2375L17.535 17.5L17.395 17.6225L17.22 17.71L17.0625 17.7275L16.87 17.605L16.7475 17.465L16.59 17.1675L16.52 16.94L16.485 16.625L16.5025 16.38L16.5725 16.0825L16.7125 15.8025L16.835 15.645L16.975 15.575L17.0275 15.5575Z" fill="#474747"/>
</svg>
