<?xml version="1.0" encoding="UTF-8"?>
<svg version="1.1" viewBox="0 0 1600 1600" width="100" height="100" xmlns="http://www.w3.org/2000/svg">
<path transform="translate(784,160)" d="m0 0h36l32 2 37 4 33 6 25 6 31 9 26 9 32 13 37 18 22 12 17 10 22 15 12 9 18 14 14 11 13 12 8 7 13 12 13 13 7 8 12 13 9 11 11 14 14 19 11 16 14 22 14 25 14 27 13 30 8 22 9 30 8 32 6 32 4 32 4 48 2 49v157l-2 41-3 21-7 19-8 14-9 11-8 7-14 8-18 7-20 4-24 2-47 2h-47l-4-1-1-4-1-38v-48l1-156 1-34 2-14 8-20 9-14 9-11 8-8 19-11 14-6 27-8 5-5-2-17-6-25-9-34-8-24-9-24-11-25-13-26-14-24-10-16-10-14-11-14-12-14-12-13-7-7v-2l-4-2-13-13-8-7-11-9-18-14-17-12-17-11-21-13-23-12-27-12-21-8-36-12-25-6-32-6-23-3-32-2h-36l-35 3-33 5-34 8-25 7-40 15-24 11-27 14-15 10-19 13-19 14-12 10-11 9-11 11-8 7-18 18-7 8-10 11-8 10-10 13-11 17-17 28-17 34-14 33-12 35-11 41-6 26-1 9 4 4 35 12 14 7 12 8 11 10 10 14 12 21 3 9 2 24v263l-4 4-6 2h-97l-21-2-19-5-16-8-11-7-12-11-7-10-8-14-7-21-3-20-1-17v-175l1-39 3-46 6-46 5-28 6-26 10-34 10-27 11-25 9-19 10-19 12-21 14-22 13-18 10-14 13-16 8-10 13-15 8-8 7-8 6-6h2l2-4 17-16 13-11 14-11 18-14 24-16 14-9 15-9 27-14 16-8 28-13 38-14 31-9 30-7 33-6 26-3 26-2z" fill="#414141"/>
<path transform="translate(1174,1174)" d="m0 0h35l66 1 6 2v20l-3 41-4 30-5 19-11 28-11 21-12 18-9 11-9 10-13 13-19 14-19 11-18 8-29 9-25 5-18 2-38 2-144 1-6 2-6 14-9 8-14 10-15 9-14 5-15 3-10 1h-18l-15-2-17-6-13-7-10-8-13-13-12-18-7-15-5-19-1-9v-16l2-15 6-20 8-17 8-11 12-12 14-10 17-8 14-4 12-2h24l18 3 16 6 14 8 11 9 7 7 10 14 5 5 7 1h125l46-1 18-2 21-7 16-9 12-9 14-14 8-14 7-16 4-23 2-29 1-34z" fill="#424242"/>
</svg>
