<svg width="131" height="27" viewBox="0 0 131 27" fill="none" xmlns="http://www.w3.org/2000/svg">
<path d="M0.640625 26V0.545454H7.55114V10.4886H16.6989V0.545454H23.6094V26H16.6989V16.0568H7.55114V26H0.640625ZM51.5497 13.2727C51.5497 16.1065 50.9987 18.497 49.8967 20.4442C48.7946 22.3832 47.3073 23.8539 45.4347 24.8565C43.562 25.8509 41.474 26.348 39.1705 26.348C36.8504 26.348 34.754 25.8467 32.8814 24.8441C31.017 23.8332 29.5339 22.3583 28.4318 20.4194C27.3381 18.4722 26.7912 16.09 26.7912 13.2727C26.7912 10.4389 27.3381 8.05256 28.4318 6.11364C29.5339 4.16643 31.017 2.69567 32.8814 1.70135C34.754 0.698744 36.8504 0.197442 39.1705 0.197442C41.474 0.197442 43.562 0.698744 45.4347 1.70135C47.3073 2.69567 48.7946 4.16643 49.8967 6.11364C50.9987 8.05256 51.5497 10.4389 51.5497 13.2727ZM44.4403 13.2727C44.4403 11.7481 44.2373 10.4638 43.8313 9.41974C43.4336 8.36742 42.8411 7.57197 42.054 7.03338C41.2751 6.4865 40.3139 6.21307 39.1705 6.21307C38.027 6.21307 37.0617 6.4865 36.2745 7.03338C35.4956 7.57197 34.9032 8.36742 34.4972 9.41974C34.0994 10.4638 33.9006 11.7481 33.9006 13.2727C33.9006 14.7973 34.0994 16.0858 34.4972 17.1381C34.9032 18.1822 35.4956 18.9776 36.2745 19.5245C37.0617 20.0631 38.027 20.3324 39.1705 20.3324C40.3139 20.3324 41.2751 20.0631 42.054 19.5245C42.8411 18.9776 43.4336 18.1822 43.8313 17.1381C44.2373 16.0858 44.4403 14.7973 44.4403 13.2727ZM54.7471 26V0.545454H65.7343C67.6235 0.545454 69.2765 0.889322 70.6934 1.57706C72.1104 2.2648 73.2124 3.25497 73.9996 4.54759C74.7867 5.8402 75.1803 7.38968 75.1803 9.19602C75.1803 11.0189 74.7743 12.556 73.9623 13.8072C73.1585 15.0584 72.0275 16.003 70.5692 16.641C69.1191 17.279 67.4246 17.598 65.4857 17.598H58.9232V12.2287H64.0937C64.9057 12.2287 65.5976 12.1293 66.1693 11.9304C66.7493 11.7232 67.1926 11.396 67.4992 10.9485C67.8141 10.5011 67.9715 9.9169 67.9715 9.19602C67.9715 8.46686 67.8141 7.87441 67.4992 7.41868C67.1926 6.95466 66.7493 6.61494 66.1693 6.3995C65.5976 6.17578 64.9057 6.06392 64.0937 6.06392H61.6576V26H54.7471ZM69.6618 14.3168L76.0255 26H68.5184L62.3039 14.3168H69.6618ZM77.43 6.11364V0.545454H99.5535V6.11364H91.8973V26H85.0862V6.11364H77.43ZM109.065 0.545454V26H102.154V0.545454H109.065Z" fill="black"/>
<path d="M120.841 24.2599V7.85369H123.625V24.2599H120.841ZM114.03 17.4489V14.6648H130.436V17.4489H114.03Z" fill="#528400"/>
</svg>
