<svg width="28" height="29" viewBox="0 0 28 29" fill="none" xmlns="http://www.w3.org/2000/svg">
<path d="M4.93501 3.2825H16.5725L17.3075 3.3L17.9725 3.335L18.2175 3.37L18.4275 3.44L18.69 3.58L18.9875 3.8075L19.145 3.965L19.32 4.21L19.46 4.49L19.53 4.735L19.565 5.0325L19.5825 5.54L19.6 13.45L19.565 13.5025L19.495 13.52H14.7525L13.2125 13.5375L12.1625 13.555L11.865 13.59L11.7075 13.66L11.55 13.7825L11.3925 13.9575L11.27 14.1675L11.2 14.4125L11.2175 14.6225L11.2875 14.85L11.4625 15.095L11.6375 15.2525L11.76 15.34L11.9875 15.3925L12.11 15.41L12.4775 15.4275L19.46 15.445L19.6 15.4625L19.6175 15.48V16.39L19.6 19.0675L19.5825 23.3375L19.565 23.9325L19.5125 24.3L19.425 24.5275L19.2325 24.895L19.075 25.105L18.9 25.2975L18.6025 25.455L18.305 25.56L18.06 25.6125L17.6575 25.6475L17.15 25.665L15.225 25.6825H5.39001L4.60251 25.665L4.23501 25.63L3.99001 25.56L3.74501 25.4375L3.55251 25.2975L3.37751 25.14L3.22001 24.9825L3.06251 24.755L2.92251 24.44L2.85251 24.2125L2.81751 23.985L2.80001 23.74L2.78251 23.25L2.76501 22.3925V5.61L2.80001 4.9625L2.85251 4.6825L2.94001 4.455L3.13251 4.1225L3.27251 3.965L3.37751 3.8425L3.62251 3.65L3.93751 3.4575L4.14751 3.3525L4.28751 3.3175L4.46251 3.3L4.93501 3.2825Z" fill="#444444"/>
<path d="M23.135 9.8275H23.45L23.625 9.88L23.8175 9.985L24.115 10.23L24.325 10.4225L24.605 10.685L24.9025 10.9825L25.025 11.1225L27.3 13.3975L27.4225 13.5375L27.545 13.66L27.6675 13.8L27.825 13.975L28 14.1675V14.8325L27.9475 14.85L27.9125 14.92H27.8775L27.86 14.9725H27.825L27.79 15.0425L27.615 15.235L27.4925 15.375L26.8975 15.97L26.7575 16.0925L26.635 16.215L26.6175 16.25H26.5825V16.285H26.5475L26.5125 16.355L25.5675 17.3L25.445 17.405L25.4275 17.44H25.3925L25.3575 17.51L24.15 18.7175L24.01 18.84L23.8525 18.9625L23.625 19.1025L23.4325 19.155L23.1525 19.1375L22.9075 19.085L22.7675 18.9975L22.61 18.84L22.47 18.6125L22.4 18.42L22.3825 18.3325V18.105L22.435 17.93L22.5225 17.7725L22.6625 17.58L22.82 17.405L22.9425 17.265L23.205 17.0025L23.345 16.88L23.5375 16.67L23.7125 16.495L23.835 16.355L24.0975 16.0925L24.2375 15.97L24.465 15.7775L24.64 15.6375L24.7625 15.4975V15.4625L24.535 15.445L19.67 15.4275L19.6 15.2875L19.5825 14.9725V13.6775L19.6175 13.5725L20.16 13.555L23.6775 13.5375L24.7275 13.52L24.675 13.4325L24.5525 13.2925L24.4125 13.17L24.15 12.925L24.0275 12.785L23.415 12.1725L23.2925 12.0325L22.75 11.49L22.61 11.315L22.47 11.0875L22.4 10.9125L22.3825 10.825V10.6675L22.435 10.4575L22.54 10.2475L22.6975 10.055L22.855 9.9325L23.065 9.845L23.135 9.8275Z" fill="#444444"/>
</svg>
