<svg width="28" height="29" viewBox="0 0 28 29" fill="none" xmlns="http://www.w3.org/2000/svg">
<path d="M7.40255 3.29999H22.645L23.275 3.31749L23.6075 3.35249L23.765 3.43999L23.9575 3.59749L24.01 3.63249V3.66749L24.08 3.70249L24.2025 3.85999L24.22 3.92999L24.2375 4.92749V20.45L24.22 21.08L24.185 21.5875L24.115 22.025L23.9925 22.4975L23.8175 22.935L23.625 23.3375L23.45 23.6175L23.17 23.985L22.995 24.1775L22.715 24.4575L22.5225 24.615L22.1725 24.8775L21.8575 25.07L21.4725 25.2625L21.1925 25.3675L20.65 25.525L20.3 25.595L19.7925 25.6475L19.46 25.665L18.62 25.6825H14.3325L7.36755 25.665L6.84255 25.63L6.49255 25.5775L6.19505 25.5075L5.77505 25.3675L5.37255 25.1925L5.05755 25.0175L4.84755 24.8775L4.63755 24.72L4.39255 24.51L4.16505 24.3L4.04255 24.1775L3.88505 23.985L3.71005 23.775L3.46505 23.4075L3.29005 23.0925L3.13255 22.76L2.99255 22.375L2.88755 21.9725L2.81755 21.5525L2.80005 21.36V21.0975L2.83505 20.8175L2.90505 20.625L3.04505 20.4325L3.16755 20.31L3.34255 20.1875L3.46505 20.135L3.55255 20.1175L3.81505 20.1L5.49505 20.0825L5.56505 20.065V5.60999L5.58255 4.64749L5.60005 4.12249L5.63505 3.94749L5.70505 3.80749L5.89755 3.57999L6.07255 3.42249L6.19505 3.35249L6.47505 3.31749L7.40255 3.29999ZM7.43755 5.13749V20.1L7.45505 20.1175L11.9 20.1H14.1925L15.785 20.135L16.275 20.17L16.3625 20.2225H16.3975V20.2575L16.485 20.345L16.59 20.52L16.6775 20.765L16.87 21.64L17.0275 22.1475L17.1675 22.4625L17.3075 22.6725L17.465 22.865L17.6575 23.0575L17.885 23.2325L18.1125 23.39L18.3575 23.53L18.69 23.67L19.075 23.775L19.46 23.8275H19.81L20.125 23.775L20.58 23.635L20.9125 23.4775L21.245 23.2675L21.4725 23.075L21.595 22.97L21.7175 22.83L21.8575 22.6375L22.0325 22.3225L22.155 22.025L22.26 21.6925L22.33 21.36L22.365 21.01L22.3825 6.29249V5.13749H7.43755Z" fill="#434343"/>
<path d="M14 7.95499H19.18L19.5475 7.97249L19.5825 7.98999V9.75749L19.5475 9.80999L19.4775 9.82749H14.105L14 9.77499L13.9825 9.75749L13.965 9.59999V9.23249L13.9825 7.98999L14 7.95499Z" fill="#434343"/>
<path d="M13.9825 11.6825H14.7175L19.5475 11.7L19.5825 11.735V13.17L19.565 13.485L19.5125 13.52L18.7775 13.5375H14.1225L14.035 13.5025L13.9825 13.4325L13.965 13.3275V11.805L13.9825 11.6825Z" fill="#434343"/>
<path d="M14 15.445H19.285L19.5475 15.4625L19.5825 15.4975V17.2125L19.5475 17.2475L18.9525 17.265L15.9075 17.2825H14.0525L14 17.265L13.9825 17.23L13.965 16.1275L13.9825 15.5325L14 15.445Z" fill="#434343"/>
<path d="M10.255 7.95499H11.095L12.11 7.97249L12.1275 8.00749V9.80999L12.0575 9.82749H10.36L10.255 9.80999L10.22 9.72249V8.40999L10.2375 7.97249L10.255 7.95499Z" fill="#434343"/>
<path d="M10.255 11.6825H10.815L12.11 11.7L12.145 11.77V13.4325L12.075 13.52L11.8475 13.5375H10.2725L10.2375 13.5025L10.22 13.275V11.91L10.2375 11.7L10.255 11.6825Z" fill="#454545"/>
<path d="M10.255 15.4275H11.1125L12.0925 15.445L12.145 15.48V17.23L12.11 17.265H10.255L10.2375 17.2475V15.4625L10.255 15.4275Z" fill="#434343"/>
</svg>
