<svg width="28" height="29" viewBox="0 0 28 29" fill="none" xmlns="http://www.w3.org/2000/svg">
<path d="M3.30748 10.755H24.36L25.2 10.7725L25.4625 10.79L25.62 10.8425L25.935 11.1575L26.0225 11.2975L26.075 11.455L26.0925 11.595L26.11 11.9275V13.415L26.075 13.8875L26.005 14.0275L25.865 14.15L25.6025 14.3425L25.3925 14.43L25.0775 14.5175L25.0075 14.57L24.99 14.815L24.885 15.41L24.7275 16.3375L24.6225 16.9325L24.465 17.895L24.3425 18.5775L24.1675 19.645L24.01 20.5725L23.8875 21.3775L23.73 22.375L23.6425 22.9525L23.5375 23.39L23.45 23.635L23.2925 23.9325L23.1525 24.125L23.03 24.2475L22.8025 24.405L22.5225 24.5625L22.26 24.65L21.875 24.7025L21.4375 24.72L20.125 24.7375H19.075L13.545 24.72H11.025L8.06748 24.7375H6.70248L6.08998 24.72L5.75748 24.685L5.52998 24.615L5.28498 24.475L4.98748 24.265L4.77748 24.0725L4.61998 23.8275L4.51498 23.6L4.40998 23.25L4.32248 22.8475L4.12998 21.6925L3.93748 20.485L3.74498 19.3125L3.51748 17.9475L3.25498 16.4075L3.04498 15.0775L2.99248 14.6225L2.97498 14.57L2.83498 14.5175L2.48498 14.4125L2.32748 14.325L2.09998 14.1325L1.95998 13.9925L1.88998 13.87L1.87248 13.8L1.85498 13.52V11.9625L1.88998 11.42L1.95998 11.28L2.08248 11.1225L2.20498 10.9475L2.32748 10.8075L2.39748 10.7725L3.30748 10.755ZM13.86 14.465L13.6675 14.535L13.4575 14.6925L13.23 14.92L13.1075 15.1125L13.055 15.305L13.0375 15.6725V20.9225L13.055 21.2025L13.1075 21.43L13.1775 21.535L13.335 21.6925L13.58 21.85L13.8075 21.92L13.9125 21.9375H14.14L14.315 21.885L14.49 21.78L14.7175 21.5875L14.8225 21.4475L14.875 21.255L14.91 20.975L14.9275 18.1225V15.445L14.8575 15.1475L14.7175 14.9025L14.56 14.7275L14.4025 14.5875L14.175 14.4825L14.0875 14.465H13.86ZM10.0625 14.5L9.85248 14.5875L9.65998 14.7275L9.48498 14.9025L9.37998 15.1125L9.34498 15.34V21.0625L9.36248 21.29L9.43248 21.4825L9.53748 21.6225L9.69498 21.7625L9.93998 21.885L10.1325 21.92H10.3775L10.5525 21.8675L10.745 21.745L10.955 21.5525L11.095 21.325L11.1475 21.15L11.165 21.0275L11.1825 20.52V15.55L11.1475 15.27L11.06 15.06L10.9025 14.8325L10.7625 14.675L10.57 14.5525L10.395 14.5H10.0625ZM17.57 14.5L17.4125 14.5525L17.22 14.675L17.01 14.885L16.8875 15.0775L16.835 15.235L16.8175 15.445L16.8 16.495L16.7825 19.2425V20.7475L16.8 21.08L16.8525 21.3775L16.9575 21.5525L17.15 21.745L17.29 21.8325L17.5175 21.9025L17.64 21.92H17.9025L18.0775 21.8675L18.3575 21.675L18.48 21.5525L18.55 21.4125L18.6025 21.1675L18.62 21.0275L18.6375 20.6075V15.48L18.6025 15.235L18.515 15.0075L18.34 14.7625L18.2 14.64L17.99 14.535L17.8325 14.5H17.57Z" fill="#434343"/>
<path d="M17.36 1.44501H18.69L19.6875 1.46251L19.95 1.51501L20.1075 1.60251L20.2125 1.69001L20.3875 1.91751L20.475 2.12751L20.51 2.26751V2.49501L20.475 2.68751L20.3875 2.84501L20.2825 2.93251L20.125 3.03751L20.0725 3.05501V3.16001L20.265 3.47501L20.4225 3.72001L20.65 4.08751L20.9125 4.52501L21.21 5.03251L21.42 5.40001L21.665 5.83751L21.8225 6.13501L21.98 6.50251L22.085 6.78251L22.2425 7.34251L22.33 7.83251L22.365 8.14751L22.3825 8.53251V8.83001L22.2425 8.86501L21.525 8.88251H14.4375L14.035 8.86501L13.9825 8.84751L13.965 8.72501L14.035 8.11251L14.0875 7.69251L14.1925 7.25501L14.3325 6.80001L14.455 6.45001L14.5775 6.18751L14.735 5.83751L14.945 5.45251L15.085 5.19001L15.33 4.77001L15.6975 4.15751L15.8375 3.91251L16.1 3.51001L16.2225 3.30001L16.2575 3.17751L16.24 3.05501L15.9775 2.81001L15.8725 2.65251L15.8375 2.53001L15.855 2.23251L15.925 2.04001L16.0125 1.88251L16.205 1.63751L16.345 1.53251L16.45 1.48001L16.5375 1.46251L17.36 1.44501Z" fill="#434343"/>
<path d="M6.75495 5.57501L6.99995 5.61001L7.20995 5.68001L7.48995 5.82001L7.76995 5.97751L8.15495 6.22251L8.90745 6.73001L9.25745 6.95751L9.50245 7.11501L9.85245 7.34251L10.1325 7.51751L10.535 7.78001L10.8325 7.97251L11.41 8.35751L11.585 8.48001L11.8825 8.65501L12.0575 8.81251L12.0925 8.86501L12.0575 8.88251L11.865 8.90001L5.30245 8.88251L4.70745 8.86501L4.63745 8.84751L4.65495 8.76001L4.86495 8.44501L5.02245 8.16501L5.21495 7.76251L5.61745 6.95751L5.75745 6.66001L5.93245 6.32751L6.05495 6.11751L6.22995 5.89001L6.29995 5.80251L6.49245 5.68001L6.68495 5.59251L6.75495 5.57501Z" fill="#434343"/>
<path d="M11.305 4.245H11.9175L12.215 4.28L12.565 4.3675L12.9325 4.5075L13.16 4.595L13.1425 4.7L12.95 5.1375L12.81 5.4525L12.6175 5.9775L12.4075 6.625L12.3375 6.8L12.215 6.73L11.935 6.5375L11.6725 6.345L10.9025 5.8375L10.0975 5.3125L9.8 5.12L9.625 4.9975L9.6425 4.91L9.87 4.7525L10.2375 4.56L10.78 4.35L11.1125 4.2625L11.305 4.245Z" fill="#434343"/>
</svg>
