<svg width="28" height="29" viewBox="0 0 28 29" fill="none" xmlns="http://www.w3.org/2000/svg">
<path d="M6.63251 2.33749L6.89501 2.35499L7.31501 2.44249L7.54251 2.52999L7.75251 2.65249L7.89251 2.79249L8.06751 3.07249L8.19001 3.36999L8.27751 3.66749L8.33001 3.92999L8.36501 4.24499L8.38251 4.59499V4.90999L8.36501 5.27749L8.29501 5.73249L8.17251 6.18749L7.89251 7.00999L8.48751 7.02749L12.1625 7.04499L12.7575 7.06249L13.0725 7.11499L13.2475 7.18499L13.4575 7.34249L13.685 7.56999L13.8425 7.81499L13.9475 8.09499L13.9825 8.32249V8.61999L13.93 8.84749L13.8075 9.07499L13.6325 9.31999L13.4925 9.49499L13.4575 9.56499L13.475 9.63499L13.5975 9.82749L13.7725 10.0725L13.9125 10.3L13.9825 10.58V10.8775L13.93 11.1225L13.8075 11.3675L13.615 11.6475L13.545 11.7175H13.51V11.7525L13.3875 11.8575L13.335 11.98L13.37 12.155L13.4925 12.435V12.715L13.3175 13.17L13.195 13.3975L13.02 13.52L12.7925 13.6425L12.74 13.7125V13.8175L12.845 13.975L12.95 14.0625L13.02 14.2725V14.5175L12.9675 14.7975L12.845 14.955L12.7225 15.165L12.6525 15.34L12.5825 15.375L12.5475 15.3575V15.3925L12.46 15.41L12.425 15.4275L6.66751 15.4625L6.00251 15.445L5.70501 15.41L5.42501 15.3575L4.98751 15.2L4.65501 15.0775L4.35751 14.92L4.09501 14.7275L3.92001 14.535L3.83251 14.4825L3.53501 14.43L3.23751 14.4475H2.88751L2.81751 14.3425L2.78251 13.94L2.76501 13.415V9.56499L2.78251 8.14749L2.80001 7.98999L2.85251 7.91999L3.04501 7.88499L3.53501 7.81499L3.81501 7.74499L4.27001 7.65749L4.55001 7.56999L4.67251 7.49999L4.77751 7.37749L4.98751 6.97499L5.12751 6.69499L5.37251 6.23999L5.54751 5.92499L5.68751 5.64499L5.82751 5.38249L6.07251 4.83999L6.16001 4.57749L6.24751 4.19249L6.40501 3.10749L6.45751 2.75749L6.47501 2.49499L6.52751 2.40749L6.63251 2.33749Z" fill="#444444"/>
<path d="M17.5 13.415H18.725L21.42 13.4325L22.12 13.4675L22.47 13.52L22.7675 13.6075L22.9775 13.695L23.4325 13.9225L23.66 14.0975L23.8525 14.29L24.0275 14.395L24.36 14.4475H24.99L25.0775 14.535L25.095 14.57V20.9575L25.0775 21.01L25.0075 21.045L24.4825 21.0975L24.2025 21.15L23.905 21.2725L23.66 21.4125L23.45 21.57L23.3625 21.64L23.205 21.8325L23.0825 22.0075L22.82 22.48L22.575 22.935L22.365 23.32L22.225 23.6L21.98 24.0725L21.84 24.4225L21.7525 24.7375L21.665 25.28L21.5775 25.945L21.5075 26.1725H21.21L20.685 26.1025L20.4225 26.0325L20.2125 25.945L20.0375 25.805L19.8625 25.63L19.705 25.3325L19.6175 25.07L19.5475 24.7375L19.5125 24.37V23.6L19.5825 23.1275L19.705 22.62L19.95 21.7275L20.0025 21.57H15.7325L15.085 21.5525L14.805 21.535L14.6475 21.4825L14.42 21.36L14.2625 21.2025L14.0875 20.94L13.9825 20.7125L13.9125 20.4675L13.895 20.2225L13.93 20.0125L14 19.82L14.14 19.6275L14.315 19.4175L14.35 19.3475L14.3325 19.2425L14.1575 18.9275L13.9475 18.56L13.9125 18.455L13.895 18.1575L13.965 17.9125L14.07 17.72L14.1925 17.5275L14.385 17.3175L14.6475 17.1425L14.6825 17.02V16.8975L14.5425 16.6175L14.49 16.495L14.455 16.355L14.4375 16.25L14.525 15.935L14.665 15.585L14.7875 15.375L14.9625 15.2L15.2775 15.0425L15.3475 14.955L15.4 14.78L15.4175 14.5525L15.4 14.2725L15.4875 14.01L15.6275 13.835L15.8375 13.6425L15.995 13.5025L16.1175 13.4325L17.5 13.415Z" fill="#444444"/>
</svg>
