<svg width="28" height="29" viewBox="0 0 28 29" fill="none" xmlns="http://www.w3.org/2000/svg">
<path d="M13.93 3.2825L14.49 3.3L15.2425 3.37L15.9425 3.475L16.5375 3.5975L17.01 3.72L17.5175 3.8775L18.0425 4.0525L18.1125 4.105L18.06 4.28L17.885 4.6825L17.6925 5.19L17.1675 6.5025L16.8875 7.185L16.59 7.92L16.2925 8.6375L15.9425 9.5125L15.47 10.685L15.12 11.5775L14.8575 12.225L14.315 13.555L14.07 14.185L13.9475 14.4825L14.49 14.325L15.7325 14.0625L16.8525 13.8175L17.99 13.5725L19.635 13.2225L21.63 12.82L24.15 12.2775L24.8675 12.1025L24.9375 12.1375L25.0425 12.7325L25.13 13.4675L25.165 13.9225V15.165L25.1125 15.83L25.025 16.4075L24.8675 17.1425L24.745 17.5975L24.5525 18.21L24.36 18.7L24.2025 19.05L23.9925 19.4875L23.7475 19.9775L23.52 20.38L23.135 20.9575L22.9425 21.22L22.7675 21.4475L22.5575 21.6925L22.435 21.8325L22.2075 22.095L22.0675 22.235L21.9625 22.3575H21.9275L21.8925 22.4275H21.8575L21.8225 22.4975H21.7875V22.5325L21.6475 22.655L21.1575 23.075L20.93 23.2675L20.72 23.4425L20.3875 23.67L20.2125 23.7925L20.02 23.915L19.67 24.125L19.355 24.3L18.9525 24.51L18.515 24.72L17.99 24.93L17.36 25.14L16.73 25.315L15.995 25.4725L15.3475 25.5775L14.875 25.63L14.35 25.665H13.3875L12.5475 25.595L11.97 25.5075L11.34 25.3675L10.7625 25.21L9.99247 24.9475L9.46747 24.72L9.15247 24.58L8.48747 24.2475L8.10247 24.02L7.83997 23.845L7.55997 23.6525L7.33247 23.4775L7.08747 23.285L6.89497 23.1275L6.64997 22.9175L6.45747 22.76L6.19497 22.515L5.84497 22.165L5.72247 22.025L5.54747 21.8325L5.38997 21.64L5.19747 21.43L4.96997 21.1325L4.74247 20.8175L4.47997 20.415L4.26997 20.0475L4.05997 19.645L3.77997 19.0675L3.56997 18.5775L3.32497 17.895L3.18497 17.4225L3.02747 16.7925L2.90497 16.075L2.83497 15.5675L2.79997 15.1475L2.78247 14.71V14.3075L2.81747 13.555L2.90497 12.855L3.02747 12.19L3.13247 11.7175L3.28997 11.175L3.49997 10.58L3.72747 10.0375L3.93747 9.5825L4.16497 9.11L4.37497 8.725L4.56747 8.41L4.74247 8.165L4.86497 7.99L5.03997 7.745L5.21497 7.5175L5.42497 7.29L5.63497 7.045L5.77497 6.87L6.40497 6.24L6.54497 6.1175L6.73747 5.96L6.92997 5.785L7.12247 5.6275L7.34997 5.4525L7.66497 5.225L8.06747 4.9625L8.32997 4.805L8.64497 4.63L9.27497 4.315L9.85247 4.07L10.325 3.895L10.8675 3.72L11.4975 3.5625L12.0575 3.4575L12.67 3.37L13.23 3.3175L13.93 3.2825Z" fill="#454545"/>
<path d="M20.4749 3.54501L20.6324 3.56251L20.9649 3.72001L21.3499 3.94751L21.7174 4.19251L22.3824 4.68251L22.5574 4.84001L22.7499 4.99751L22.9074 5.15501L22.9424 5.17251V5.20751L23.0124 5.24251L23.1524 5.38251L23.2749 5.52251L23.4499 5.69751L23.6074 5.89001L23.8174 6.11751L24.0799 6.46751L24.3249 6.81751L24.5524 7.16751L24.7799 7.55251L24.9899 7.93751L25.2699 8.51501L25.4449 8.91751L25.6199 9.35501L25.6374 9.47751L25.5499 9.53001L25.2699 9.61751L24.8149 9.72251L23.5374 10.0025L21.7874 10.3525L20.3524 10.65L19.5474 10.825L18.0249 11.14L17.4824 11.2625H17.3774L17.3949 11.14L17.5699 10.7375L17.8849 9.96751L18.0249 9.60001L18.2524 9.02251L18.4624 8.51501L18.5674 8.23501L18.8124 7.64001L19.0399 7.08001L19.3899 6.20501L19.5474 5.83751L19.7574 5.29501L19.9674 4.77001L20.2124 4.17501L20.3699 3.72001L20.4399 3.58001L20.4749 3.54501Z" fill="#454545"/>
</svg>
